<?xml version="1.0" standalone="no"?>
<!DOCTYPE svg PUBLIC "-//W3C//DTD SVG 20010904//EN"
 "http://www.w3.org/TR/2001/REC-SVG-20010904/DTD/svg10.dtd">
<svg version="1.0" xmlns="http://www.w3.org/2000/svg"
 width="256.000000pt" height="256.000000pt" viewBox="0 0 256.000000 256.000000"
 preserveAspectRatio="xMidYMid meet">
<metadata>
Created by potrace 1.15, written by Peter Selinger 2001-2017
</metadata>
<g transform="translate(0.000000,256.000000) scale(0.100000,-0.100000)"
fill="#a5841e" stroke="none">
<path d="M253 2546 c-23 -8 -57 -23 -76 -35 -51 -31 -125 -115 -150 -169 l-22
-47 0 -1015 0 -1015 22 -48 c31 -66 115 -152 182 -184 l56 -28 473 -3 472 -3
0 456 0 455 -150 0 -150 0 0 150 0 150 149 0 148 0 5 223 c4 193 8 229 26 275
39 101 122 184 224 224 46 19 80 22 276 26 l222 4 0 -151 0 -151 -177 0 c-158
0 -181 -2 -207 -19 -61 -41 -66 -58 -66 -253 l0 -178 215 0 c118 0 215 -3 215
-6 0 -10 -39 -245 -45 -272 -5 -22 -7 -22 -195 -22 l-190 0 0 -455 0 -456 393
3 392 3 56 28 c67 32 151 118 182 184 l22 48 0 1015 0 1015 -28 56 c-32 67
-118 151 -184 182 l-48 22 -1000 2 c-803 1 -1008 -1 -1042 -11z m2017 -160
c49 -26 88 -64 113 -111 l22 -40 0 -955 c0 -913 -1 -957 -19 -990 -26 -49 -64
-88 -111 -113 -38 -21 -56 -22 -327 -25 l-288 -4 0 306 0 306 185 0 c102 0
185 3 185 6 0 9 90 547 95 572 l5 22 -235 0 -235 0 0 75 0 75 225 0 225 0 0
300 0 300 -308 0 c-253 0 -318 -3 -363 -16 -175 -52 -311 -188 -363 -363 -12
-40 -16 -97 -16 -213 l0 -158 -150 0 -150 0 0 -300 0 -300 150 0 150 0 0 -306
0 -305 -367 3 c-355 3 -369 4 -408 25 -47 25 -85 64 -111 113 -18 33 -19 77
-19 990 0 913 1 957 19 990 38 71 95 116 166 131 19 4 454 6 965 5 887 -1 932
-2 965 -20z"/>
</g>
</svg>
