<?xml version="1.0" standalone="no"?>
<!DOCTYPE svg PUBLIC "-//W3C//DTD SVG 20010904//EN"
 "http://www.w3.org/TR/2001/REC-SVG-20010904/DTD/svg10.dtd">
<svg version="1.0" xmlns="http://www.w3.org/2000/svg"
 width="256.000000pt" height="256.000000pt" viewBox="0 0 256.000000 256.000000"
 preserveAspectRatio="xMidYMid meet">
<metadata>
Created by potrace 1.15, written by Peter Selinger 2001-2017
</metadata>
<g transform="translate(0.000000,256.000000) scale(0.100000,-0.100000)"
fill="#a5841e" stroke="none">
<path d="M1582 2315 c-100 -22 -208 -81 -277 -150 -99 -98 -145 -210 -145
-351 l0 -72 -75 15 c-166 31 -365 120 -509 227 -86 63 -177 151 -268 256 l-55
65 -47 -93 c-66 -131 -79 -192 -74 -327 4 -80 11 -125 27 -165 25 -66 25 -63
2 -50 -11 5 -22 10 -24 10 -3 0 -8 -33 -11 -73 -13 -129 20 -252 96 -368 23
-35 41 -71 40 -80 -4 -23 52 -172 85 -228 36 -62 128 -157 182 -189 l44 -26
-39 -17 c-21 -9 -150 -54 -286 -100 -137 -46 -247 -88 -245 -93 5 -15 235
-133 342 -175 212 -83 368 -106 669 -98 144 4 228 11 297 25 525 109 855 434
945 930 8 48 18 166 20 262 3 96 11 188 17 204 6 17 67 106 135 200 68 93 127
176 130 184 5 13 -7 14 -80 9 l-86 -7 45 130 c25 72 43 133 40 136 -4 4 -77
-18 -164 -49 -214 -75 -199 -73 -236 -44 -127 96 -334 139 -495 102z m290
-175 c32 -12 84 -41 115 -64 70 -53 102 -60 173 -41 30 8 55 13 57 11 2 -1 -8
-36 -22 -76 -32 -94 -32 -100 5 -100 17 0 30 -2 30 -5 0 -3 -15 -26 -34 -52
-63 -89 -68 -110 -77 -328 -8 -210 -24 -316 -63 -431 -144 -425 -543 -667
-1101 -666 -99 0 -201 6 -269 17 -118 18 -266 60 -266 75 0 6 6 10 13 10 36 0
677 285 677 301 0 3 -64 9 -142 13 -185 10 -240 20 -313 55 -69 34 -172 131
-140 131 36 0 366 93 358 100 -4 5 -75 24 -158 44 -82 20 -173 48 -201 61 -69
34 -132 92 -171 156 -33 58 -51 105 -36 96 14 -9 306 -39 334 -35 20 2 7 16
-86 89 -209 164 -255 235 -263 402 -2 53 -1 97 2 97 4 0 43 -31 86 -68 250
-217 532 -333 873 -360 l99 -8 -7 56 c-3 30 -11 78 -17 106 -26 124 7 241 92
324 114 111 299 148 452 90z"/>
</g>
</svg>
